<svg width="360" height="76" viewBox="0 0 360 76" fill="none" xmlns="http://www.w3.org/2000/svg">
    <rect width="360" height="76" fill="#F3123C" />
    <g clip-path="url(#clip0_2402_24239)">
        <path
            d="M339.933 107.262C339.704 107.262 339.515 107.074 339.515 106.845L339.306 61.2639C339.306 61.035 339.495 60.8477 339.724 60.8477C339.954 60.8477 340.143 61.035 340.143 61.2639L340.352 106.845C340.352 107.074 340.184 107.262 339.933 107.262C339.933 107.262 339.954 107.262 339.933 107.262Z"
            fill="#2E2D37" />
        <path
            d="M359.582 98.5214C359.352 98.5214 359.164 98.334 359.164 98.1051V75.4185H344.114C343.884 75.4185 343.696 75.2311 343.696 75.0022V59.3921H325.929V88.5309C325.929 88.7599 325.741 88.9472 325.511 88.9472C325.281 88.9472 325.093 88.7599 325.093 88.5309V58.9758C325.093 58.7469 325.281 58.5596 325.511 58.5596H344.114C344.344 58.5596 344.532 58.7469 344.532 58.9758V74.5859H359.582C359.812 74.5859 360 74.7732 360 75.0022V98.1051C360 98.334 359.812 98.5214 359.582 98.5214Z"
            fill="#2E2D37" />
        <path
            d="M299.592 79.7899C299.362 79.7899 299.174 79.6026 299.174 79.3736V37.1223C299.174 36.8934 299.362 36.7061 299.592 36.7061H317.568C317.798 36.7061 317.986 36.8934 317.986 37.1223V63.5554H327.183C327.413 63.5554 327.601 63.7427 327.601 63.9717C327.601 64.2006 327.413 64.3879 327.183 64.3879H317.568C317.338 64.3879 317.15 64.2006 317.15 63.9717V37.5386H300.01V79.3736C300.01 79.6026 299.822 79.7899 299.592 79.7899Z"
            fill="#2E2D37" />
        <path
            d="M280.57 79.7903H272.418C272.188 79.7903 272 79.6029 272 79.374C272 79.1451 272.188 78.9577 272.418 78.9577H280.152L280.57 41.2854C280.57 41.0565 280.758 40.8691 280.988 40.8691H292.903C293.007 40.8691 293.112 40.9108 293.195 40.994C293.279 41.0773 293.321 41.1813 293.321 41.2854L292.903 71.8812H317.15C317.38 71.8812 317.568 72.0685 317.568 72.2974C317.568 72.5264 317.38 72.7137 317.15 72.7137H292.485C292.38 72.7137 292.276 72.6721 292.192 72.5888C292.108 72.5056 292.067 72.4015 292.067 72.2974L292.485 41.7017H281.406L280.988 79.374C280.988 79.6238 280.8 79.7903 280.57 79.7903Z"
            fill="#2E2D37" />
        <path
            d="M330.109 96.8549C329.879 96.8549 329.691 96.6676 329.691 96.4386L329.482 61.2639C329.482 61.035 329.67 60.8477 329.9 60.8477C330.13 60.8477 330.318 61.035 330.318 61.2639L330.527 96.4386C330.548 96.6676 330.36 96.8549 330.109 96.8549C330.109 96.8549 330.13 96.8549 330.109 96.8549Z"
            fill="#2E2D37" />
        <path
            d="M333.245 101.226C333.015 101.226 332.827 101.038 332.827 100.809L332.618 61.2639C332.618 61.035 332.806 60.8477 333.036 60.8477C333.266 60.8477 333.454 61.035 333.454 61.2639L333.663 100.809C333.684 101.038 333.496 101.226 333.245 101.226C333.245 101.226 333.266 101.226 333.245 101.226Z"
            fill="#2E2D37" />
        <path
            d="M336.589 104.556C336.359 104.556 336.171 104.369 336.171 104.14L335.962 61.2639C335.962 61.035 336.15 60.8477 336.38 60.8477C336.61 60.8477 336.798 61.035 336.798 61.2639L337.007 104.14C337.007 104.369 336.84 104.556 336.589 104.556C336.589 104.556 336.61 104.556 336.589 104.556Z"
            fill="#2E2D37" />
        <path
            d="M314.432 40.2417H302.936C302.706 40.2417 302.518 40.0544 302.518 39.8254C302.518 39.5965 302.706 39.4092 302.936 39.4092H314.432C314.662 39.4092 314.85 39.5965 314.85 39.8254C314.85 40.0544 314.662 40.2417 314.432 40.2417Z"
            fill="#2E2D37" />
        <path
            d="M314.432 42.9497H302.936C302.706 42.9497 302.518 42.7624 302.518 42.5335C302.518 42.3045 302.706 42.1172 302.936 42.1172H314.432C314.662 42.1172 314.85 42.3045 314.85 42.5335C314.85 42.7624 314.662 42.9497 314.432 42.9497Z"
            fill="#2E2D37" />
        <path
            d="M314.432 45.6558H302.936C302.706 45.6558 302.518 45.4685 302.518 45.2395C302.518 45.0106 302.706 44.8232 302.936 44.8232H314.432C314.662 44.8232 314.85 45.0106 314.85 45.2395C314.85 45.4685 314.662 45.6558 314.432 45.6558Z"
            fill="#2E2D37" />
        <path
            d="M314.432 48.3599H302.936C302.706 48.3599 302.518 48.1726 302.518 47.9436C302.518 47.7147 302.706 47.5273 302.936 47.5273H314.432C314.662 47.5273 314.85 47.7147 314.85 47.9436C314.85 48.1726 314.662 48.3599 314.432 48.3599Z"
            fill="#2E2D37" />
        <path
            d="M314.432 51.0669H302.936C302.706 51.0669 302.518 50.8796 302.518 50.6506C302.518 50.4217 302.706 50.2344 302.936 50.2344H314.432C314.662 50.2344 314.85 50.4217 314.85 50.6506C314.85 50.8796 314.662 51.0669 314.432 51.0669Z"
            fill="#2E2D37" />
        <path
            d="M314.432 53.773H302.936C302.706 53.773 302.518 53.5856 302.518 53.3567C302.518 53.1278 302.706 52.9404 302.936 52.9404H314.432C314.662 52.9404 314.85 53.1278 314.85 53.3567C314.85 53.5856 314.662 53.773 314.432 53.773Z"
            fill="#2E2D37" />
        <path
            d="M314.432 56.688H302.936C302.706 56.688 302.518 56.5007 302.518 56.2717C302.518 56.0428 302.706 55.8555 302.936 55.8555H314.432C314.662 55.8555 314.85 56.0428 314.85 56.2717C314.85 56.5007 314.662 56.688 314.432 56.688Z"
            fill="#2E2D37" />
        <path
            d="M314.432 59.6001H302.936C302.706 59.6001 302.518 59.4128 302.518 59.1838C302.518 58.9549 302.706 58.7676 302.936 58.7676H314.432C314.662 58.7676 314.85 58.9549 314.85 59.1838C314.85 59.4128 314.662 59.6001 314.432 59.6001Z"
            fill="#2E2D37" />
        <path
            d="M314.432 62.5142H302.936C302.706 62.5142 302.518 62.3269 302.518 62.0979C302.518 61.869 302.706 61.6816 302.936 61.6816H314.432C314.662 61.6816 314.85 61.869 314.85 62.0979C314.85 62.3269 314.662 62.5142 314.432 62.5142Z"
            fill="#2E2D37" />
        <path
            d="M314.432 65.4292H302.936C302.706 65.4292 302.518 65.2419 302.518 65.0129C302.518 64.784 302.706 64.5967 302.936 64.5967H314.432C314.662 64.5967 314.85 64.784 314.85 65.0129C314.85 65.2419 314.662 65.4292 314.432 65.4292Z"
            fill="#2E2D37" />
        <path
            d="M314.432 68.3423H302.936C302.706 68.3423 302.518 68.155 302.518 67.926C302.518 67.6971 302.706 67.5098 302.936 67.5098H314.432C314.662 67.5098 314.85 67.6971 314.85 67.926C314.85 68.155 314.662 68.3423 314.432 68.3423Z"
            fill="#2E2D37" />
        <path
            d="M289.14 67.0935C288.91 67.0935 288.722 66.9062 288.722 66.6773V43.7825C288.722 43.5535 288.91 43.3662 289.14 43.3662C289.37 43.3662 289.558 43.5535 289.558 43.7825V66.6773C289.558 66.9062 289.37 67.0935 289.14 67.0935Z"
            fill="#2E2D37" />
        <path
            d="M286.736 64.3878C286.506 64.3878 286.318 64.2005 286.318 63.9715V43.7825C286.318 43.5535 286.506 43.3662 286.736 43.3662C286.966 43.3662 287.154 43.5535 287.154 43.7825V63.9715C287.154 64.2005 286.966 64.3878 286.736 64.3878Z"
            fill="#2E2D37" />
        <path
            d="M284.437 61.682C284.207 61.682 284.019 61.4947 284.019 61.2658V43.7825C284.019 43.5535 284.207 43.3662 284.437 43.3662C284.667 43.3662 284.855 43.5535 284.855 43.7825V61.2658C284.855 61.4947 284.667 61.682 284.437 61.682Z"
            fill="#2E2D37" />
        <path
            d="M315.269 37.5175C315.039 37.5175 314.851 37.3302 314.851 37.1012V34.8325H302.309V37.1012C302.309 37.3302 302.121 37.5175 301.891 37.5175C301.661 37.5175 301.473 37.3302 301.473 37.1012V34.4163C301.473 34.1873 301.661 34 301.891 34H315.269C315.499 34 315.687 34.1873 315.687 34.4163V37.1012C315.687 37.3302 315.499 37.5175 315.269 37.5175Z"
            fill="#2E2D37" />
        <path
            d="M341.188 59.3933C340.958 59.3933 340.77 59.206 340.77 58.9771V50.7974H328.646L328.605 58.9354C328.605 59.1644 328.417 59.3517 328.187 59.3517C327.957 59.3517 327.769 59.1644 327.769 58.9354L327.81 50.3811C327.81 50.1522 327.998 49.9648 328.228 49.9648H341.188C341.418 49.9648 341.606 50.1522 341.606 50.3811V58.9771C341.606 59.206 341.418 59.3933 341.188 59.3933Z"
            fill="#2E2D37" />
        <path
            d="M339.724 50.6292C339.494 50.6292 339.306 50.4419 339.306 50.2129V47.3198H330.297L330.256 50.1921C330.256 50.421 330.067 50.6084 329.837 50.6084C329.608 50.6084 329.419 50.421 329.419 50.1921L329.461 46.9036C329.461 46.6746 329.649 46.4873 329.879 46.4873H339.724C339.954 46.4873 340.142 46.6746 340.142 46.9036V50.2129C340.142 50.4419 339.954 50.6292 339.724 50.6292Z"
            fill="#2E2D37" />
    </g>
    <path
        d="M103.608 67.8319C100.411 67.8319 97.8195 65.2687 97.8195 62.1069C97.8195 58.945 100.411 56.3818 103.608 56.3818C106.804 56.3818 109.396 58.945 109.396 62.1069C109.396 65.2687 106.804 67.8319 103.608 67.8319Z"
        fill="white" />
    <path
        d="M250.792 67.3925H218.82C218.82 67.3925 219.253 62.4716 225.513 62.0504C231.774 61.6292 228.545 56.9189 237.838 56.9189C247.13 56.9189 244.965 63.5439 250.162 63.5439C255.36 63.5439 255.32 67.3925 255.32 67.3925H250.792Z"
        fill="white" />
    <path
        d="M252.013 54.9848H275.146C275.343 54.9848 275.52 54.8316 275.539 54.6401C275.539 54.5444 275.677 52.4956 274.083 50.7532C272.724 49.2981 270.618 48.5322 267.802 48.4556C263.156 48.3215 261.778 49.0491 260.557 49.681C259.711 50.1214 258.982 50.5043 257.191 50.6001C252.407 50.8298 251.639 54.5061 251.639 54.5444C251.619 54.6593 251.639 54.7742 251.718 54.8507C251.796 54.9273 251.895 54.9848 252.013 54.9848ZM274.732 54.2189H252.544C252.899 53.3381 254.001 51.5 257.23 51.3468C259.199 51.2511 260.085 50.7915 260.931 50.3511C262.113 49.7384 263.333 49.0874 267.783 49.2215C270.381 49.2789 272.291 49.9682 273.472 51.2319C274.496 52.3425 274.693 53.6062 274.732 54.2189Z"
        fill="white" />
    <path
        d="M152.197 67.8144H188.717C188.835 67.8144 188.934 67.7761 189.013 67.6995C189.091 67.6229 189.131 67.508 189.111 67.4123C189.111 67.3549 188.579 62.166 182.043 61.7256C179.425 61.5533 178.617 60.615 177.672 59.5619C176.452 58.1834 175.054 56.6133 169.699 56.6133C164.167 56.6133 162.493 58.9301 161.155 60.8065C160.17 62.166 159.402 63.2382 157.394 63.2382C151.882 63.2382 151.823 67.4314 151.823 67.4697C151.803 67.6421 151.98 67.8144 152.197 67.8144ZM188.245 67.0485H152.63C152.787 66.1486 153.575 63.9658 157.375 63.9658C159.796 63.9658 160.761 62.6255 161.785 61.2086C163.084 59.3896 164.58 57.3409 169.679 57.3409C174.68 57.3409 175.881 58.7003 177.042 60.0215C178.007 61.1129 179.011 62.2617 181.964 62.4532C186.847 62.817 187.989 65.9188 188.245 67.0485Z"
        fill="#2E2D37" />
    <path
        d="M77.8562 74.7211H100.969C101.088 74.7211 101.206 74.6637 101.265 74.5871C101.343 74.4913 101.363 74.3764 101.343 74.2807C101.343 74.2424 100.576 70.5662 95.7916 70.3364C94 70.2598 93.2716 69.8769 92.425 69.4173C91.2044 68.7855 89.8263 68.0579 85.18 68.1919C82.3647 68.2685 80.2581 69.0344 78.9193 70.4704C77.3049 72.2128 77.4428 74.2807 77.4625 74.3573C77.4821 74.5679 77.6396 74.7211 77.8562 74.7211ZM100.438 73.9552H78.25C78.2893 73.3425 78.5059 72.0788 79.51 70.9682C80.6912 69.7045 82.6009 69.0152 85.1997 68.9386C89.6491 68.8238 90.8697 69.4556 92.0509 70.0683C92.8975 70.5087 93.7835 70.9682 95.7522 71.064C98.9613 71.2555 100.083 73.0936 100.438 73.9552Z"
        fill="white" />
    <g clip-path="url(#clip1_2402_24239)">
        <path
            d="M0.460148 82.347C0.711956 82.347 0.917981 82.1412 0.917981 81.8895V51.4992H24.0019C24.2537 51.4992 24.4597 51.2934 24.4597 51.0418V19.8074L51.8587 19.2699V69.1076C51.8587 69.3592 52.0648 69.5651 52.3166 69.5651C52.5684 69.5651 52.7744 69.3592 52.7744 69.1076V18.8033C52.7744 18.6797 52.724 18.5631 52.6371 18.4762C52.5501 18.3892 52.4287 18.3435 52.3074 18.3458L23.9927 18.9016C23.7432 18.9062 23.5441 19.1098 23.5441 19.3591V50.5843H0.457856C0.206048 50.5843 2.36063e-05 50.7902 2.36063e-05 51.0418V81.8895C0.00231277 82.1434 0.206051 82.347 0.460148 82.347Z"
            fill="#2E2D37" />
        <path
            d="M49.773 36.7675H64.4077C64.6595 36.7675 64.8655 36.5617 64.8655 36.3101V0.914957H75.5422C75.794 0.914957 76 0.709092 76 0.457478C76 0.205865 75.794 0 75.5422 0H64.4077C64.1559 0 63.9498 0.205865 63.9498 0.457478V35.8526H49.773C49.5212 35.8526 49.3152 36.0584 49.3152 36.3101C49.3152 36.5617 49.5212 36.7675 49.773 36.7675Z"
            fill="#2E2D37" />
        <path
            d="M30.6832 62.0605C30.9351 62.0605 31.1411 61.8546 31.1411 61.603V21.5805C31.1411 21.3289 30.9351 21.123 30.6832 21.123C30.4314 21.123 30.2253 21.3289 30.2253 21.5805V61.6007C30.2253 61.8546 30.4314 62.0605 30.6832 62.0605Z"
            fill="#2E2D37" />
        <path
            d="M34.3419 55.3035C34.5937 55.3035 34.7998 55.0977 34.7998 54.8461V21.5805C34.7998 21.3289 34.5937 21.123 34.3419 21.123C34.0901 21.123 33.884 21.3289 33.884 21.5805V54.8438C33.884 55.0977 34.0901 55.3035 34.3419 55.3035Z"
            fill="#2E2D37" />
        <path
            d="M37.8421 48.5466C38.094 48.5466 38.3 48.3407 38.3 48.0891V21.5805C38.3 21.3289 38.094 21.123 37.8421 21.123C37.5903 21.123 37.3842 21.3289 37.3842 21.5805V48.0868C37.3842 48.3407 37.5903 48.5466 37.8421 48.5466Z"
            fill="#2E2D37" />
        <path
            d="M41.8202 54.7843C42.072 54.7843 42.2781 54.5784 42.2781 54.3268V21.5805C42.2781 21.3289 42.072 21.123 41.8202 21.123C41.5683 21.123 41.3623 21.3289 41.3623 21.5805V54.3268C41.3623 54.5784 41.566 54.7843 41.8202 54.7843Z"
            fill="#2E2D37" />
        <path
            d="M45.9547 62.0605C46.2065 62.0605 46.4126 61.8546 46.4126 61.603V21.5805C46.4126 21.3289 46.2065 21.123 45.9547 21.123C45.7028 21.123 45.4968 21.3289 45.4968 21.5805V61.6007C45.4968 61.8546 45.7028 62.0605 45.9547 62.0605Z"
            fill="#2E2D37" />
        <path
            d="M28.4562 19.2593C28.7081 19.2593 28.9141 19.0534 28.9141 18.8018V14.2568H47.731L47.7974 18.7469C47.802 18.9985 48.0103 19.1975 48.2621 19.1975C48.5139 19.1929 48.7176 18.9848 48.7131 18.7332L48.6398 13.7924C48.6352 13.5431 48.4315 13.3418 48.182 13.3418H28.4562C28.2044 13.3418 27.9984 13.5477 27.9984 13.7993V18.8018C27.9984 19.0534 28.2044 19.2593 28.4562 19.2593Z"
            fill="#2E2D37" />
    </g>
    <defs>
        <clipPath id="clip0_2402_24239">
            <rect width="88" height="42" fill="white" transform="translate(272 34)" />
        </clipPath>
        <clipPath id="clip1_2402_24239">
            <rect width="76" height="76" fill="white" transform="matrix(-1 0 0 1 76 0)" />
        </clipPath>
    </defs>
</svg>