<?xml version="1.0" encoding="utf-8"?><svg version="1.1" id="Camada_1" xmlns="http://www.w3.org/2000/svg" xmlns:xlink="http://www.w3.org/1999/xlink" x="0px" y="0px"  viewBox="0 0 78 13.6" style="enable-background:new 0 0 78 13.6;" xml:space="preserve"><style type="text/css"> .st0{fill:#FFFFFF;}</style><title>Santander-Logo</title><desc>Created with Sketch.</desc><g> <path class="st0" d="M10.3,6.3c0-0.5-0.2-1-0.4-1.4L7.7,0.9C7.5,0.7,7.4,0.3,7.3,0L7.2,0.2c-0.6,0.9-0.6,2.2,0,3.1L9,6.4  c0.6,0.9,0.6,2.2,0,3.1L8.9,9.7C8.8,9.3,8.7,9,8.5,8.7L6.9,5.9L5.9,4C5.7,3.7,5.6,3.4,5.5,3.1L5.4,3.2c-0.6,0.9-0.6,2.1,0,3.1l0,0  l1.8,3.1c0.6,0.9,0.6,2.2,0,3.1l-0.1,0.2c-0.1-0.3-0.2-0.7-0.4-0.9L4.5,7.9C4.2,7.4,4.1,6.8,4.1,6.2C1.7,6.8,0,8.2,0,9.7  c0,2.2,3.2,3.9,7.2,3.9s7.2-1.7,7.2-3.9C14.4,8.2,12.7,6.9,10.3,6.3z M17.1,12.9c0-0.6,0.1-0.9,0.3-1.4c0.8,0.4,1.7,0.5,2.5,0.5  c1.2,0,2-0.4,2-1.2c0-0.8-0.5-1.1-1.8-1.7l-0.7-0.3c-1.3-0.6-2.1-1.3-2.1-2.7c0-1.5,1.1-2.5,3.2-2.5c0.9,0,1.7,0.1,2.5,0.4  c0,0.5-0.1,0.9-0.3,1.3C21.9,5.1,21,5,20.4,5c-1.2,0-1.7,0.5-1.7,1.2c0,0.7,0.5,1.1,1.5,1.5L20.9,8c1.7,0.7,2.4,1.5,2.4,2.8  c0,1.5-1.2,2.6-3.5,2.6C18.8,13.4,17.8,13.3,17.1,12.9z M30.6,6.5v6.7h-1.4l-0.1-0.8c-0.4,0.6-0.9,1-1.9,1c-1.8,0-3-1.3-3-3.6  c0-2.4,1.3-3.7,3.8-3.7C29,6.1,29.8,6.2,30.6,6.5z M29.1,11.7V7.4c-0.3-0.1-0.7-0.1-1.1-0.1c-1.5,0-2.3,0.9-2.3,2.5  c0,1.4,0.6,2.4,1.9,2.4C28.2,12.1,28.7,12,29.1,11.7z M38.1,8.7v4.5h-1.5V8.9c0-1.1-0.4-1.6-1.8-1.6c-0.4,0-0.8,0-1.2,0.1v5.7h-1.5  V6.5c0.9-0.2,2-0.4,2.7-0.4C37.4,6.1,38.1,7,38.1,8.7z M42.3,12.1c0.4,0,0.9-0.1,1.1-0.2c0,0.4-0.1,0.9-0.2,1.2  c-0.4,0.2-0.9,0.2-1.2,0.2c-1.4,0-2.4-0.7-2.4-2.3V4c0.5-0.2,1-0.2,1.5-0.2v2.6h2.4c0,0.5-0.1,0.9-0.1,1.3h-2.2v3.3  C41.1,11.8,41.6,12.1,42.3,12.1z M50.2,6.5v6.7h-1.4l-0.1-0.8c-0.4,0.6-0.9,1-1.9,1c-1.8,0-3-1.3-3-3.6c0-2.4,1.3-3.7,3.8-3.7  C48.7,6.1,49.4,6.2,50.2,6.5z M48.7,11.7V7.4c-0.3-0.1-0.7-0.1-1.1-0.1c-1.5,0-2.3,0.9-2.3,2.5c0,1.4,0.6,2.4,1.9,2.4  C47.9,12.1,48.4,12,48.7,11.7z M57.8,8.7v4.5h-1.5V8.9c0-1.1-0.4-1.6-1.8-1.6c-0.4,0-0.8,0-1.2,0.1v5.7h-1.5V6.5  c0.9-0.2,2-0.4,2.7-0.4C57,6.1,57.8,7,57.8,8.7z M65.3,3.8v9.4H64l-0.1-0.9c-0.4,0.6-0.9,1-1.9,1c-1.8,0-3-1.3-3-3.6  c0-2.4,1.3-3.7,3.8-3.7c0.4,0,0.8,0,1.1,0.1V3.9C64.3,3.8,64.8,3.8,65.3,3.8z M63.9,11.7V7.5c-0.4-0.1-0.8-0.1-1.2-0.1  c-1.5,0-2.2,0.9-2.2,2.5c0,1.4,0.6,2.4,1.9,2.4C63,12.1,63.5,12,63.9,11.7z M72.8,10.3H68c0.2,1.2,0.9,1.8,2.2,1.8  c0.8,0,1.6-0.2,2.4-0.5c-0.1,0.4-0.1,0.9-0.2,1.3c-0.7,0.3-1.4,0.4-2.2,0.4c-2.5,0-3.7-1.4-3.7-3.7c0-2,0.9-3.6,3.3-3.6  c2.1,0,3,1.4,3,3.1C72.9,9.6,72.9,9.9,72.8,10.3z M68,9.1h3.3c0-1.1-0.6-1.8-1.6-1.8C68.7,7.3,68.1,7.9,68,9.1z M78,6.2  c0,0.5-0.1,1-0.1,1.3c-0.4,0-0.7-0.1-1.1-0.1c-0.4,0-0.7,0-1.1,0.1v5.8h-1.5V6.5c0.6-0.2,1.7-0.4,2.5-0.4C77.1,6.1,77.7,6.1,78,6.2  z"/></g></svg>