<svg width="24" height="24" viewBox="0 0 24 24" fill="none" xmlns="http://www.w3.org/2000/svg">    <path fill-rule="evenodd" clip-rule="evenodd"        d="M13.5808 11.9498L20.2618 5.26877C20.7128 4.81783 20.7128 4.08895 20.2618 3.63801C19.8109 3.18707 19.082 3.18707 18.6311 3.63801L11.95 10.319L5.26901 3.63801C4.81807 3.18707 4.08919 3.18707 3.63825 3.63801C3.18731 4.08895 3.18731 4.81783 3.63825 5.26877L10.3193 11.9498L3.63825 18.6308C3.18731 19.0818 3.18731 19.8107 3.63825 20.2616C3.86315 20.4865 4.15839 20.5995 4.45363 20.5995C4.74888 20.5995 5.04412 20.4865 5.26901 20.2616L11.95 13.5806L18.6311 20.2616C18.856 20.4865 19.1512 20.5995 19.4465 20.5995C19.7417 20.5995 20.037 20.4865 20.2618 20.2616C20.7128 19.8107 20.7128 19.0818 20.2618 18.6308L13.5808 11.9498Z"        fill="#fff" /></svg>