<svg width="15" height="15" viewBox="0 0 16 16" fill="none" xmlns="http://www.w3.org/2000/svg">
    <path fill-rule="evenodd" clip-rule="evenodd"
        d="M8.34522 10.655C8.34522 11.0884 8.69986 11.4431 9.13331 11.4431C9.57464 11.4431 9.9214 11.0963 9.9214 10.655V10.1585C10.2918 9.85112 10.6386 9.48072 11.0168 8.97634L11.1193 8.84237C11.7419 8.05428 11.9231 7.03764 11.6 6.18651C11.34 5.51663 10.8435 4.98861 10.2051 4.72066C9.86623 4.57093 9.50371 4.5 9.13331 4.5C7.6123 4.5 6.375 5.7373 6.375 7.25831C6.375 7.69176 6.72964 8.0464 7.16309 8.0464C7.59654 8.0464 7.95118 7.69176 7.95118 7.25831C7.95118 6.6042 8.48708 6.07618 9.13331 6.07618C9.29093 6.07618 9.44854 6.1077 9.5904 6.17075C9.82683 6.2732 10.016 6.4781 10.1184 6.74605C10.2524 7.08493 10.1578 7.51838 9.86623 7.88878L9.7559 8.03852C9.45643 8.44832 9.18059 8.73992 8.90476 8.96058L8.90444 8.96084C8.75444 9.07926 8.34522 9.40232 8.34522 9.97721V10.655ZM9.87416 12.7592C9.87416 13.1683 9.54249 13.5 9.13336 13.5C8.72422 13.5 8.39255 13.1683 8.39255 12.7592C8.39255 12.3501 8.72422 12.0184 9.13336 12.0184C9.54249 12.0184 9.87416 12.3501 9.87416 12.7592ZM9.00073 15C5.69248 15 3.00073 12.3082 3.00073 9C3.00073 5.69175 5.69248 3 9.00073 3C12.309 3 15.0007 5.69175 15.0007 9C15.0007 12.3082 12.309 15 9.00073 15ZM9.00073 1.5C4.86523 1.5 1.50073 4.8645 1.50073 9C1.50073 13.1355 4.86523 16.5 9.00073 16.5C13.1362 16.5 16.5007 13.1355 16.5007 9C16.5007 4.8645 13.1362 1.5 9.00073 1.5Z"
        fill="#2E2D37" />
</svg>