<?xml version="1.0" encoding="UTF-8"?>
<svg width="124px" height="24px" viewBox="0 0 124 24" version="1.1" xmlns="http://www.w3.org/2000/svg" xmlns:xlink="http://www.w3.org/1999/xlink">
    <!-- Generator: Sketch 54 (76480) - https://sketchapp.com -->
    <title>Logo/Colored/Black</title>
    <desc>Created with Sketch.</desc>
    <g id="Symbols" stroke="none" stroke-width="1" fill="none" fill-rule="evenodd">
        <g id="Chassi/Header/Portal/Mobile/Home" transform="translate(-56.000000, -16.000000)">
            <g id="Logo/Colorido/Texto-preto" transform="translate(56.000000, 16.000000)">
                <path d="M118.912318,9.77339077 C118.912318,9.24649846 119.420557,8.97326769 120.045685,8.97326769 C120.589435,8.97326769 121.031833,9.18446769 121.342917,9.55369846 C121.456106,9.68736 121.645494,9.72649846 121.799741,9.64416 L123.293019,8.84662154 C123.496463,8.73806769 123.552318,8.47111385 123.410647,8.28982154 C122.616846,7.27369846 121.414307,6.72982154 120.045685,6.72982154 C118.03307,6.72982154 116.331909,7.84194462 116.331909,9.83172923 C116.331909,13.2659446 121.375098,12.4853908 121.375098,13.9098831 C121.375098,14.4751754 120.828019,14.7484062 120.02682,14.7484062 C119.245596,14.7484062 118.668925,14.4474831 118.327879,13.9187446 C118.223568,13.7573908 118.014205,13.6997908 117.844422,13.7906215 L116.301208,14.6143754 C116.11182,14.7159138 116.048938,14.9581292 116.162496,15.1412677 C116.927815,16.3660062 118.270175,17.03136 120.02682,17.03136 C122.117853,17.03136 123.955506,16.0170831 123.955506,13.9098831 C123.955506,10.3194831 118.912318,11.2170831 118.912318,9.77339077" id="Fill-11" fill="#151918"></path>
                <path d="M111.632097,16.70928 L110.522403,16.70928 C110.114036,16.70928 109.782607,16.3784492 109.782607,15.9708185 L109.782607,12.0097108 C109.782607,9.24786462 112.025668,7.00848 114.793615,7.00848 L114.794724,7.00848 C115.200872,7.00848 115.530821,7.33746462 115.530821,7.74324923 L115.530821,8.85832615 C115.530821,9.26411077 115.200872,9.59309538 114.794724,9.59309538 L114.793245,9.59309538 C113.456064,9.59309538 112.371893,10.6753108 112.371893,12.0097108 L112.371893,15.9708185 C112.371893,16.3784492 112.040464,16.70928 111.632097,16.70928" id="Fill-16" fill="#151918"></path>
                <path d="M103.26101,14.5732062 C101.77513,14.5732062 100.622528,13.4610831 100.622528,11.8807754 C100.622528,10.3004677 101.77513,9.18834462 103.26101,9.18834462 C104.765755,9.18834462 105.919467,10.3004677 105.919467,11.8807754 C105.919467,13.4610831 104.765755,14.5732062 103.26101,14.5732062 M103.26101,6.73000615 C100.387273,6.73000615 98.1013036,8.97345231 98.1013036,11.8807754 C98.1013036,14.7877292 100.387273,17.0315446 103.26101,17.0315446 C106.134747,17.0315446 108.440691,14.7877292 108.440691,11.8807754 C108.440691,8.97345231 106.134747,6.73000615 103.26101,6.73000615" id="Fill-5" fill="#151918"></path>
                <path d="M94.2931301,3.85307077 L93.2514974,3.85307077 C92.8427602,3.85307077 92.5117015,4.18390154 92.5117015,4.59153231 L92.5117015,7.00297846 L92.5117015,9.42217846 L92.5117015,13.4803938 C92.5117015,15.9339323 93.5455663,16.9991631 96.5476582,16.8186092 C96.9364209,16.7949785 97.2419566,16.4685785 97.2419566,16.0797785 L97.2419566,15.2401477 C97.2419566,14.8295631 96.9035,14.5002092 96.4910638,14.5031631 C95.533398,14.5087015 95.032926,14.3336862 95.032926,13.4803938 L95.032926,9.42217846 L96.5021607,9.42217846 C96.9105281,9.42217846 97.2419566,9.09171692 97.2419566,8.68371692 L97.2419566,7.74144 C97.2419566,7.33380923 96.9105281,7.00297846 96.5021607,7.00297846 L95.032926,7.00297846 L95.032926,4.59153231 C95.032926,4.18390154 94.7014974,3.85307077 94.2931301,3.85307077" id="Fill-1" fill="#151918"></path>
                <path d="M85.9372092,14.5732062 C84.4513291,14.5732062 83.298727,13.4610831 83.298727,11.8807754 C83.298727,10.3004677 84.4513291,9.18834462 85.9372092,9.18834462 C87.4419541,9.18834462 88.5956658,10.3004677 88.5956658,11.8807754 C88.5956658,13.4610831 87.4419541,14.5732062 85.9372092,14.5732062 M85.9372092,6.73000615 C83.0634719,6.73000615 80.7775026,8.97345231 80.7775026,11.8807754 C80.7775026,14.7877292 83.0634719,17.0315446 85.9372092,17.0315446 C88.8109464,17.0315446 91.1168903,14.7877292 91.1168903,11.8807754 C91.1168903,8.97345231 88.8109464,6.73000615 85.9372092,6.73000615" id="Fill-3" fill="#151918"></path>
                <path d="M75.7566926,6.74344615 C74.4868329,6.64301538 73.3260931,7.10972308 72.4912334,7.9128 C71.6567436,7.10972308 70.4945242,6.64301538 69.2261441,6.74344615 C67.0100855,6.91846154 65.3466543,8.85618462 65.3466543,11.0748923 L65.3466543,16.1440615 C65.3466543,16.5524308 65.6784528,16.8825231 66.0864503,16.8825231 L67.1961441,16.8825231 C67.6052513,16.8825231 67.9359401,16.5524308 67.9359401,16.1440615 L67.9359401,11.0139692 C67.9359401,10.1651077 68.5566288,9.40523077 69.4033253,9.32252308 C70.3750472,9.228 71.1965906,9.99083077 71.1965906,10.9419692 L71.1965906,16.1440615 C71.1965906,16.5524308 71.5272793,16.8825231 71.9363865,16.8825231 L73.0460804,16.8825231 C73.4540778,16.8825231 73.7858763,16.5524308 73.7858763,16.1440615 L73.7858763,11.0143385 C73.7858763,10.1651077 74.4065651,9.40486154 75.2532615,9.32252308 C76.2249834,9.228 77.0454171,9.99083077 77.0454171,10.9419692 L77.0454171,16.1440615 C77.0454171,16.5524308 77.3772156,16.8825231 77.785213,16.8825231 L78.8949069,16.8825231 C79.304014,16.8825231 79.6347028,16.5524308 79.6347028,16.1440615 L79.6347028,11.0748923 C79.6347028,8.85618462 77.9723814,6.91846154 75.7566926,6.74344615" id="Fill-9" fill="#151918"></path>
                <path d="M59.0919758,14.4989169 C57.6090548,14.4989169 56.4579324,13.3904862 56.4538635,11.81424 L56.4538635,11.7983631 C56.4579324,10.2224862 57.6090548,9.11405538 59.0919758,9.11405538 C60.5970906,9.11405538 61.7504324,10.2261785 61.7504324,11.8064862 C61.7504324,13.3867938 60.5970906,14.4989169 59.0919758,14.4989169 M59.0919758,6.65571692 C58.123213,6.65571692 57.224361,6.91565538 56.4538635,7.36500923 L56.4538635,3.83922462 C56.4538635,3.43159385 56.1228048,3.10076308 55.7140676,3.10076308 L54.6720651,3.10076308 C54.2633278,3.10076308 53.9322691,3.43159385 53.9322691,3.83922462 L53.9322691,11.8400862 L53.9341186,11.8400862 C53.9518737,14.7304246 56.2304452,16.9572554 59.0919758,16.9572554 C61.965713,16.9572554 64.2716569,14.71344 64.2716569,11.8064862 C64.2716569,8.89916308 61.965713,6.65571692 59.0919758,6.65571692" id="Fill-14" fill="#151918"></path>
                <path d="M47.6045357,9.03961846 C48.6576352,9.03961846 49.5365128,9.58497231 49.9704031,10.4530338 L45.2575332,10.4530338 C45.6903138,9.58497231 46.5651224,9.03961846 47.6045357,9.03961846 L47.6045357,9.03961846 Z M50.2914745,13.6092185 C50.0184898,13.4637415 49.6741148,13.4906954 49.4510663,13.7048492 C48.9801862,14.1582646 48.3361939,14.42448 47.6045357,14.42448 C46.5444082,14.42448 45.6555434,13.8569723 45.2331199,12.9578954 C45.1158622,12.7086646 45.2893444,12.4214031 45.5649184,12.4214031 L52.0932474,12.4214031 C52.4727628,12.4214031 52.7838469,12.11088 52.7842168,11.7320492 C52.7842168,8.82509538 50.478273,6.58128 47.6045357,6.58128 C44.7311684,6.58128 42.4448291,8.82509538 42.4448291,11.7320492 C42.4448291,14.6397415 44.7311684,16.8831877 47.6045357,16.8831877 C49.1196378,16.8831877 50.4742041,16.2573415 51.4178138,15.24048 C51.7422143,14.8911877 51.6319847,14.3251569 51.2110408,14.1010338 L50.2914745,13.6092185 Z" id="Fill-20" fill="#151918"></path>
                <path d="M38.7401531,12.6711508 C38.7401531,13.6222892 37.9189796,14.38512 36.9472577,14.2905969 C36.1005612,14.2078892 35.4802423,13.4480123 35.4802423,12.5984123 L35.4802423,7.46832 C35.4802423,7.06068923 35.1488138,6.72985846 34.7404464,6.72985846 L33.6307526,6.72985846 C33.2220153,6.72985846 32.8909566,7.06068923 32.8909566,7.46832 L32.8909566,12.5984123 C32.8909566,13.4480123 32.2706378,14.2078892 31.4235714,14.2905969 C30.4518495,14.38512 29.630676,13.6222892 29.630676,12.6711508 L29.630676,7.46832 C29.630676,7.06068923 29.2996173,6.72985846 28.8908801,6.72985846 L27.7811862,6.72985846 C27.3728189,6.72985846 27.0413903,7.06068923 27.0413903,7.46832 L27.0413903,12.5382277 C27.0413903,14.7565662 28.7044515,16.6942892 30.9201403,16.8696738 C32.1892602,16.9701046 33.3511097,16.5033969 34.1855995,15.70032 C35.0197194,16.5033969 36.1815689,16.9701046 37.4510587,16.8696738 C39.6663776,16.6942892 41.3294388,14.7565662 41.3294388,12.5382277 L41.3294388,7.46832 C41.3294388,7.06068923 40.9980102,6.72985846 40.5896429,6.72985846 L39.479949,6.72985846 C39.0715816,6.72985846 38.7401531,7.06068923 38.7401531,7.46832 L38.7401531,12.6711508 Z" id="Fill-7" fill="#151918"></path>
                <path d="M11.9067194,0 C5.33104337,0 7.39795918e-05,5.32135385 7.39795918e-05,11.8851692 C7.39795918e-05,18.4489846 5.33104337,23.7699692 11.9067194,23.7699692 C18.4823954,23.7699692 23.8129949,18.4489846 23.8129949,11.8851692 C23.8129949,5.32135385 18.4823954,0 11.9067194,0 L11.9067194,0 Z" id="Path" fill="#F51344"></path>
                <path d="M18.5626633,15.8366769 C18.5626633,16.3982769 18.092523,16.8491077 17.5239898,16.8192 C16.9909668,16.7911385 16.591477,16.3137231 16.591477,15.7809231 L16.591477,13.6076308 C16.591477,13.1996308 16.2600485,12.8691692 15.8516811,12.8691692 L13.6322934,12.8691692 C13.2235561,12.8691692 12.8924974,13.1996308 12.8924974,13.6076308 L12.8924974,16.5751385 C12.8924974,17.1367385 12.4219872,17.5875692 11.8534541,17.5576615 C11.320801,17.5296 10.9213112,17.0521846 10.9213112,16.5193846 L10.9213112,13.6076308 C10.9213112,13.1996308 10.5895128,12.8691692 10.1815153,12.8691692 L7.96212755,12.8691692 C7.55302041,12.8691692 7.22233163,13.1996308 7.22233163,13.6076308 L7.22233163,15.8366769 C7.22233163,16.3982769 6.75182143,16.8491077 6.18328827,16.8192 C5.65026531,16.7911385 5.25077551,16.3137231 5.25077551,15.7809231 L5.25077551,7.93366154 C5.25077551,7.3728 5.72091582,6.92123077 6.28907908,6.95113846 C6.82247194,6.97883077 7.22233163,7.45661538 7.22233163,7.98941538 L7.22233163,10.1627077 C7.22233163,10.5707077 7.55302041,10.9011692 7.96212755,10.9011692 L10.1815153,10.9011692 C10.5895128,10.9011692 10.9213112,10.5707077 10.9213112,10.1627077 L10.9213112,7.1952 C10.9213112,6.63433846 11.3910816,6.18276923 11.9596148,6.21267692 C12.4926378,6.24036923 12.8924974,6.71815385 12.8924974,7.25095385 L12.8924974,10.1627077 C12.8924974,10.5707077 13.2235561,10.9011692 13.6322934,10.9011692 L15.8516811,10.9011692 C16.2600485,10.9011692 16.591477,10.5707077 16.591477,10.1627077 L16.591477,7.98941538 C16.591477,7.45661538 16.9909668,6.97883077 17.5239898,6.95113846 C18.092523,6.92123077 18.5626633,7.3728 18.5626633,7.93366154 L18.5626633,15.8366769 Z" id="Path" fill="#FFFFFF"></path>
            </g>
        </g>
    </g>
</svg>